<svg width="20" height="20" viewBox="0 0 20 20" fill="none" xmlns="http://www.w3.org/2000/svg">
<path fill-rule="evenodd" clip-rule="evenodd" d="M2.91602 4.16667C2.91602 3.24619 3.66221 2.5 4.58268 2.5C5.02471 2.5 5.44863 2.67559 5.76119 2.98816C6.07375 3.30072 6.24935 3.72464 6.24935 4.16667C6.24935 5.08714 5.50316 5.83333 4.58268 5.83333C3.66221 5.83333 2.91602 5.08714 2.91602 4.16667ZM17.4989 11.1754C17.5277 9.3711 16.2968 7.79004 14.5406 7.37535C13.3637 7.12194 12.137 7.45424 11.2489 8.26702V7.91702C11.2489 7.6869 11.0624 7.50035 10.8323 7.50035H8.74894C8.51882 7.50035 8.33228 7.6869 8.33228 7.91702V16.2504C8.33228 16.4805 8.51882 16.667 8.74894 16.667H10.8323C11.0624 16.667 11.2489 16.4805 11.2489 16.2504V11.5504C11.2284 10.7134 11.8117 9.98258 12.6323 9.81702C13.1209 9.73267 13.6217 9.87027 13.9987 10.1924C14.3756 10.5146 14.5895 10.9879 14.5823 11.4837V16.2504C14.5823 16.4805 14.7688 16.667 14.9989 16.667H17.0823C17.3124 16.667 17.4989 16.4805 17.4989 16.2504V11.1754ZM6.24894 7.91667V16.25C6.24894 16.4801 6.06239 16.6667 5.83228 16.6667H3.74894C3.51882 16.6667 3.33228 16.4801 3.33228 16.25V7.91667C3.33228 7.68655 3.51882 7.5 3.74894 7.5H5.83228C6.06239 7.5 6.24894 7.68655 6.24894 7.91667Z" fill="#121212"/>
</svg>
