<svg width="42" height="42" viewBox="0 0 42 42" fill="none" xmlns="http://www.w3.org/2000/svg">
<g clip-path="url(#clip0_456_8403)">
<path d="M29.751 29.085C30.8335 29.085 31.711 28.2075 31.711 27.125C31.711 26.0426 30.8335 25.165 29.751 25.165C28.6685 25.165 27.791 26.0426 27.791 27.125C27.791 28.2075 28.6685 29.085 29.751 29.085Z" fill="#121212"/>
<path fill-rule="evenodd" clip-rule="evenodd" d="M29.7501 30.6249C28.4726 30.6249 25.9176 31.2549 25.8301 32.5149C26.7051 33.7574 28.1401 34.5624 29.7501 34.5624C31.3601 34.5624 32.7951 33.7574 33.6701 32.5149C33.5826 31.2549 31.0276 30.6249 29.7501 30.6249Z" fill="#121212"/>
<path fill-rule="evenodd" clip-rule="evenodd" d="M31.5 19.4075V10.9725L18.375 5.25L5.25 10.9725V19.565C5.25 27.51 10.85 34.9475 18.375 36.75C19.3375 36.5225 20.265 36.19 21.175 35.7875C23.065 38.4825 26.1975 40.25 29.75 40.25C35.5425 40.25 40.25 35.5425 40.25 29.75C40.25 24.5525 36.47 20.2475 31.5 19.4075ZM19.25 29.75C19.25 30.73 19.39 31.6925 19.6525 32.585C19.2325 32.7775 18.8125 32.97 18.375 33.11C12.8275 31.36 8.75 25.69 8.75 19.565V13.265L18.375 9.065L28 13.265V19.4075C23.03 20.2475 19.25 24.5525 19.25 29.75ZM29.75 36.75C25.8825 36.75 22.75 33.6175 22.75 29.75C22.75 25.8825 25.8825 22.75 29.75 22.75C33.6175 22.75 36.75 25.8825 36.75 29.75C36.75 33.6175 33.6175 36.75 29.75 36.75Z" fill="#121212"/>
</g>
<defs>
<clipPath id="clip0_456_8403">
<rect width="42" height="42" fill="white"/>
</clipPath>
</defs>
</svg>
