<svg width="20" height="20" viewBox="0 0 20 20" fill="none" xmlns="http://www.w3.org/2000/svg">
<path fill-rule="evenodd" clip-rule="evenodd" d="M9.99874 1.66699C6.86886 1.66797 4.00345 3.42264 2.57987 6.21004C1.15629 8.99744 1.41463 12.3475 3.24874 14.8837L2.49874 17.167C2.44718 17.3161 2.48611 17.4815 2.59874 17.592C2.67824 17.6718 2.78613 17.7167 2.89874 17.717H3.02374L5.39874 16.9503C8.37208 18.9174 12.2674 18.7752 15.0894 16.5965C17.9114 14.4178 19.0348 10.6853 17.8842 7.31088C16.7336 3.9365 13.5639 1.66783 9.99874 1.66699ZM16.6651 10.0007C16.6651 13.6826 13.6804 16.6673 9.99845 16.6673C6.31656 16.6673 3.33179 13.6826 3.33179 10.0007C3.33179 6.31878 6.31656 3.33401 9.99845 3.33401C11.7666 3.33401 13.4623 4.03639 14.7125 5.28664C15.9627 6.53688 16.6651 8.23257 16.6651 10.0007ZM12.7323 13.9006C13.3183 13.7982 13.8251 13.4327 14.1073 12.909C14.2505 12.6023 14.297 12.2593 14.2406 11.9256C14.2003 11.8584 14.0947 11.8074 13.9504 11.7376C13.9159 11.721 13.8792 11.7032 13.8406 11.684C13.6406 11.584 12.6323 11.084 12.4406 11.0256C12.2596 10.9385 12.0421 10.9991 11.9323 11.1673C11.7692 11.4242 11.5882 11.6692 11.3906 11.9006C11.2559 12.0264 11.0589 12.0593 10.8906 11.984C10.276 11.7492 9.71072 11.4016 9.22395 10.959C8.77668 10.5446 8.39209 10.0674 8.08228 9.54229C7.9917 9.39567 8.02783 9.20416 8.16561 9.10063C8.22115 9.03121 8.27925 8.97207 8.33707 8.91322C8.38337 8.8661 8.42948 8.81917 8.47395 8.76729C8.56377 8.67001 8.6395 8.56061 8.69895 8.44229C8.76575 8.32325 8.76575 8.17801 8.69895 8.05896C8.64895 7.95896 8.21561 6.89229 8.07395 6.54229C7.93228 6.19229 7.83228 6.19229 7.62395 6.19229H7.39061C7.12607 6.18123 6.86712 6.27053 6.66561 6.44229C6.1754 6.87787 5.89613 7.50319 5.89895 8.15896C5.9646 8.93063 6.25424 9.66632 6.73228 10.2756C7.59325 11.6098 8.80389 12.6821 10.2323 13.3756C11.8989 14.0423 12.3656 13.984 12.7323 13.9006Z" fill="#121212"/>
</svg>
